<?xml version="1.0" encoding="UTF-8" standalone="no"?>
<svg height="160" viewBox="0 0 128 160" width="128" xmlns="http://www.w3.org/2000/svg">
<defs>
<path d="M 80 0 L 80 -735 L 158 -735 L 158 -624 L 258 -624 Q 285 -624 312 -617.5 Q 339 -611 361.5 -596 Q 384 -581 400.5 -559 Q 417 -537 427 -511.5 Q 437 -486 440.5 -458.5 Q 444 -431 444 -404 Q 444 -377 440.5 -349.5 Q 437 -322 427 -296.5 Q 417 -271 400.5 -249 Q 384 -227 361.5 -212 Q 339 -197 312 -190.5 Q 285 -184 258 -184 L 158 -184 L 158 0 Z M 158 -254 L 258 -254 Q 275 -254 292 -259.5 Q 309 -265 322 -276 Q 335 -287 344 -302.5 Q 353 -318 358 -335 Q 363 -352 364.5 -369 Q 366 -386 366 -404 Q 366 -421 364.5 -438.5 Q 363 -456 358 -473 Q 353 -490 344 -505 Q 335 -520 322 -531.5 Q 309 -543 292 -548.5 Q 275 -554 258 -554 L 158 -554 Z " id="path1"/>
</defs>
<g>
<g data-source-text="Þ" fill="#dee4e3" transform="translate(40 104.99201) rotate(0) scale(0.09599999)">
<use href="#path1" transform="translate(0 0)"/>
</g>
</g>
</svg>