<?xml version="1.0" encoding="UTF-8" standalone="no"?>
<svg height="160" viewBox="0 0 128 160" width="128" xmlns="http://www.w3.org/2000/svg">
<defs>
<path d="M 144 0 Q 133 -45 122.5 -90.5 Q 112 -136 102.5 -182 Q 93 -228 84.5 -273.5 Q 76 -319 68.5 -365.5 Q 61 -412 56 -458.5 Q 51 -505 51 -551 L 51 -665 L 16 -665 L 16 -735 L 126 -735 L 126 -551 Q 126 -495 131 -438.5 Q 136 -382 142.5 -326 Q 149 -270 156.5 -214.5 Q 164 -159 173 -103 L 224 -491 L 189 -735 L 243 -735 L 327 -103 Q 336 -159 343.5 -214.5 Q 351 -270 357.5 -326 Q 364 -382 369 -438.5 Q 374 -495 374 -551 L 374 -665 L 341 -665 L 341 -735 L 484 -735 L 484 -665 L 449 -665 L 449 -551 Q 449 -505 444 -458.5 Q 439 -412 431.5 -365.5 Q 424 -319 415.5 -273.5 Q 407 -228 397.5 -182 Q 388 -136 377.5 -90.5 Q 367 -45 356 0 L 296 0 L 250 -315 L 204 0 Z " id="path1"/>
</defs>
<g>
<g data-source-text="W" fill="#dee4e3" transform="translate(40 104.99201) rotate(0) scale(0.09599999)">
<use href="#path1" transform="translate(0 0)"/>
</g>
</g>
</svg>