<?xml version="1.0" encoding="UTF-8" standalone="no"?>
<svg height="160" viewBox="0 0 128 160" width="128" xmlns="http://www.w3.org/2000/svg">
<defs>
<path d="M 34 0 L 34 -70 L 80 -70 L 80 -665 L 34 -665 L 34 -735 L 226 -735 L 226 -665 L 158 -665 L 158 -569 L 266 -569 Q 291 -569 316 -563.5 Q 341 -558 363 -544.5 Q 385 -531 401 -511 Q 417 -491 427 -467.5 Q 437 -444 440.5 -418.5 Q 444 -393 444 -368 Q 444 -342 440.5 -316.5 Q 437 -291 427 -267.5 Q 417 -244 401 -224 Q 385 -204 363 -190.5 Q 341 -177 316 -171.5 Q 291 -166 266 -166 L 158 -166 L 158 -70 L 226 -70 L 226 0 Z M 158 -236 L 266 -236 Q 281 -236 296.5 -240.5 Q 312 -245 324 -254.5 Q 336 -264 344.5 -277.5 Q 353 -291 358 -306 Q 363 -321 364.5 -336.5 Q 366 -352 366 -367 Q 366 -383 364.5 -398.5 Q 363 -414 358 -429 Q 353 -444 344.5 -457.5 Q 336 -471 324 -480.5 Q 312 -490 296.5 -494.5 Q 281 -499 266 -499 L 158 -499 Z " id="path1"/>
</defs>
<g>
<g data-source-text="Þ" fill="#20242e" transform="translate(40 104.99201) rotate(0) scale(0.09599999)">
<use href="#path1" transform="translate(0 0)"/>
</g>
</g>
</svg>