<?xml version="1.0" encoding="UTF-8" standalone="no"?>
<svg height="160" viewBox="0 0 128 160" width="128" xmlns="http://www.w3.org/2000/svg">
<defs>
<path d="M 80 0 L 80 -665 L 34 -665 L 34 -735 L 158 -735 L 158 -595 L 255 -595 Q 283 -595 310.5 -588.5 Q 338 -582 361 -566 Q 384 -550 400.5 -527 Q 417 -504 427 -477.5 Q 437 -451 440.5 -423.5 Q 444 -396 444 -368 Q 444 -339 440.5 -311.5 Q 437 -284 427 -257.5 Q 417 -231 400.5 -208 Q 384 -185 361 -169 Q 338 -153 310.5 -146.5 Q 283 -140 255 -140 L 158 -140 L 158 0 Z M 255 -210 Q 273 -210 290.5 -215.5 Q 308 -221 321.5 -233.5 Q 335 -246 344 -262 Q 353 -278 358 -295.5 Q 363 -313 364.5 -331 Q 366 -349 366 -368 Q 366 -386 364.5 -404 Q 363 -422 358 -439.5 Q 353 -457 344 -473 Q 335 -489 321.5 -501.5 Q 308 -514 290.5 -519.5 Q 273 -525 255 -525 L 158 -525 L 158 -210 Z " id="path1"/>
</defs>
<g>
<g data-source-text="Þ" fill="#dee4e3" transform="translate(40 104.99201) rotate(0) scale(0.09599999)">
<use href="#path1" transform="translate(0 0)"/>
</g>
</g>
</svg>