<?xml version="1.0" encoding="UTF-8" standalone="no"?>
<svg height="160" viewBox="0 0 128 160" width="128" xmlns="http://www.w3.org/2000/svg">
<defs>
<path d="M 34 0 L 34 -70 L 80 -70 L 80 -665 L 34 -665 L 34 -735 L 226 -735 L 226 -665 L 158 -665 L 158 -591 L 266 -591 Q 292 -591 317 -586 Q 342 -581 363.5 -567.5 Q 385 -554 401 -534.5 Q 417 -515 427 -491.5 Q 437 -468 440.5 -442.5 Q 444 -417 444 -392 Q 444 -367 440.5 -341.5 Q 437 -316 427 -292.5 Q 417 -269 401 -249.5 Q 385 -230 363.5 -216.5 Q 342 -203 317 -198 Q 292 -193 266 -193 L 158 -193 L 158 -70 L 226 -70 L 226 0 Z M 158 -263 L 266 -263 Q 282 -263 297 -267 Q 312 -271 324 -280.5 Q 336 -290 344.5 -303 Q 353 -316 358 -331 Q 363 -346 364.5 -361.5 Q 366 -377 366 -392 Q 366 -407 364.5 -422.5 Q 363 -438 358 -453 Q 353 -468 344.5 -481 Q 336 -494 324 -503.5 Q 312 -513 297 -517.5 Q 282 -522 266 -522 L 158 -522 Z " id="path1"/>
</defs>
<g>
<g data-source-text="Þ" fill="#20242e" transform="translate(40 104.99201) rotate(0) scale(0.09599999)">
<use href="#path1" transform="translate(0 0)"/>
</g>
</g>
</svg>