<?xml version="1.0" encoding="UTF-8" standalone="no"?>
<svg height="160" viewBox="0 0 128 160" width="128" xmlns="http://www.w3.org/2000/svg">
<defs>
<path d="M 83 0 L 83 -70 L 231 -70 Q 250 -70 269 -74 Q 288 -78 304.5 -87.5 Q 321 -97 333.5 -111.5 Q 346 -126 353.5 -143.5 Q 361 -161 363.5 -180 Q 366 -199 366 -218 Q 366 -237 364 -255 Q 362 -273 355.5 -290 Q 349 -307 337.5 -322 Q 326 -337 311 -347 Q 296 -357 278 -361 Q 260 -365 242 -365 L 82 -365 L 113 -735 L 417 -735 L 417 -665 L 185 -665 L 166 -435 L 242 -435 Q 270 -435 298 -429.5 Q 326 -424 350.5 -410.5 Q 375 -397 394 -375.5 Q 413 -354 424.5 -328 Q 436 -302 440 -274 Q 444 -246 444 -218 L 444 -217 Q 444 -189 439.5 -160 Q 435 -131 422.5 -105 Q 410 -79 389.5 -57.5 Q 369 -36 343.5 -23 Q 318 -10 289 -5 Q 260 -0 231 0 Z " id="path1"/>
</defs>
<g>
<g data-source-text="5" fill="#dee4e3" transform="translate(40 104.99201) rotate(0) scale(0.09599999)">
<use href="#path1" transform="translate(0 0)"/>
</g>
</g>
</svg>