<?xml version="1.0" encoding="UTF-8" standalone="no"?>
<svg height="160" viewBox="0 0 128 160" width="128" xmlns="http://www.w3.org/2000/svg">
<defs>
<path d="M 199 0 Q 199 -29 193 -58 Q 187 -87 180.5 -115.5 Q 174 -144 166 -172.5 Q 158 -201 149.5 -229 Q 141 -257 131.5 -285 Q 122 -313 112.5 -340.5 Q 103 -368 92.5 -395.5 Q 82 -423 70 -450 L 18 -450 L 18 -520 L 122 -520 Q 144 -473 163 -425 Q 182 -377 198.5 -328 Q 215 -279 230 -229.5 Q 245 -180 257 -130 Q 276 -170 293 -211 Q 310 -252 324.5 -294 Q 339 -336 348.5 -380 Q 358 -424 358 -468 L 358 -520 L 436 -520 L 436 -468 Q 436 -426 428 -385.5 Q 420 -345 408 -305 Q 396 -265 381 -226 Q 366 -187 349 -149 Q 332 -111 314 -74 Q 296 -37 276 0 Z " id="path1"/>
</defs>
<g>
<g data-source-text="ν" fill="#20242e" transform="translate(40 104.99201) rotate(0) scale(0.09599999)">
<use href="#path1" transform="translate(0 0)"/>
</g>
</g>
</svg>