<?xml version="1.0" encoding="UTF-8" standalone="no"?>
<svg height="160" viewBox="0 0 128 160" width="128" xmlns="http://www.w3.org/2000/svg">
<defs>
<path d="M 199 0 Q 199 -33 191 -65 Q 183 -97 174 -129 Q 165 -161 154.5 -192 Q 144 -223 132.5 -254 Q 121 -285 109 -315.5 Q 97 -346 84 -376 Q 71 -406 56.5 -436 Q 42 -466 27 -495 L 95 -528 Q 121 -480 143 -431 Q 165 -382 185 -331.5 Q 205 -281 223 -230 Q 241 -179 255 -126 Q 274 -167 291.5 -208.5 Q 309 -250 323.5 -292.5 Q 338 -335 348 -379 Q 358 -423 358 -468 L 358 -520 L 436 -520 L 436 -468 Q 436 -426 428 -385.5 Q 420 -345 408 -305 Q 396 -265 381 -226 Q 366 -187 349 -149 Q 332 -111 314 -74 Q 296 -37 276 0 Z " id="path1"/>
</defs>
<g>
<g data-source-text="ν" fill="#dee4e3" transform="translate(40 104.99201) rotate(0) scale(0.09599999)">
<use href="#path1" transform="translate(0 0)"/>
</g>
</g>
</svg>