<?xml version="1.0" encoding="UTF-8" standalone="no"?>
<svg height="160" viewBox="0 0 128 160" width="128" xmlns="http://www.w3.org/2000/svg">
<defs>
<path d="M 253 8 Q 227 8 201.5 4 Q 176 0 153 -11 Q 130 -22 110.5 -40 Q 91 -58 78.5 -80.5 Q 66 -103 60 -128 Q 54 -153 54 -179 L 54 -180 L 132 -180 L 132 -179 Q 132 -155 140 -132 Q 148 -109 165 -92.5 Q 182 -76 205.5 -69 Q 229 -62 253 -62 Q 271 -62 289.5 -67 Q 308 -72 322.5 -83.5 Q 337 -95 347.5 -111 Q 358 -127 364 -144.5 Q 370 -162 372 -180.5 Q 374 -199 374 -218 Q 374 -237 372 -255.5 Q 370 -274 363.5 -291.5 Q 357 -309 346 -324 Q 335 -339 320 -349.5 Q 305 -360 287 -364.5 Q 269 -369 250 -369 L 157 -369 L 157 -439 L 340 -665 L 58 -665 L 58 -735 L 427 -735 L 427 -665 L 244 -439 L 250 -439 Q 278 -439 306.5 -433.5 Q 335 -428 359.5 -413.5 Q 384 -399 402.5 -377 Q 421 -355 432.5 -329 Q 444 -303 448 -274.5 Q 452 -246 452 -218 Q 452 -189 448 -161 Q 444 -133 433 -106.5 Q 422 -80 404 -57.5 Q 386 -35 361.5 -19.5 Q 337 -4 309 2 Q 281 8 253 8 Z " id="path1"/>
</defs>
<g>
<g data-source-text="3" fill="#20242e" transform="translate(40 104.99201) rotate(0) scale(0.09599999)">
<use href="#path1" transform="translate(0 0)"/>
</g>
</g>
</svg>