<?xml version="1.0" encoding="UTF-8" standalone="no"?>
<svg height="160" viewBox="0 0 128 160" width="128" xmlns="http://www.w3.org/2000/svg">
<defs>
<path d="M 144 0 Q 133 -32 123 -64 Q 113 -96 103 -128 Q 93 -160 84.5 -192.5 Q 76 -225 68.5 -257.5 Q 61 -290 56 -323 Q 51 -356 51 -390 L 51 -450 L 16 -450 L 16 -520 L 126 -520 L 126 -390 Q 126 -350 131 -310 Q 136 -270 142.5 -230.5 Q 149 -191 156.5 -151.5 Q 164 -112 173 -73 L 224 -347 L 189 -520 L 243 -520 L 327 -73 Q 336 -112 343.5 -151.5 Q 351 -191 357.5 -230.5 Q 364 -270 369 -310 Q 374 -350 374 -390 L 374 -520 L 449 -520 L 449 -390 Q 449 -356 444 -323 Q 439 -290 431.5 -257.5 Q 424 -225 415.5 -192.5 Q 407 -160 397 -128 Q 387 -96 377 -64 Q 367 -32 356 0 L 296 0 L 250 -222 L 204 0 Z " id="path1"/>
</defs>
<g>
<g data-source-text="w" fill="#dee4e3" transform="translate(40 104.99201) rotate(0) scale(0.09599999)">
<use href="#path1" transform="translate(0 0)"/>
</g>
</g>
</svg>